<svg width="49" height="33" viewBox="0 0 49 33" fill="none" xmlns="http://www.w3.org/2000/svg">
<path d="M24.5277 32.4103C19.5704 32.4103 15.353 30.8404 11.8754 27.7006C8.39788 24.5609 6.65911 20.7291 6.65911 16.2051V15.8506L3.10759 19.0917L0 16.2558L8.87882 8.1532L17.7576 16.2558L14.65 19.0917L11.0985 15.8506V16.2051C11.0985 19.5812 12.4026 22.4509 15.0107 24.8141C17.6189 27.1773 20.7912 28.359 24.5277 28.359C25.4896 28.359 26.433 28.2577 27.3579 28.0551C28.2827 27.8526 29.1891 27.5487 30.077 27.1436L33.4065 30.182C32.0007 30.9248 30.5579 31.4818 29.0781 31.8532C27.5983 32.2246 26.0815 32.4103 24.5277 32.4103ZM39.9547 24.257L31.0759 16.1545L34.1834 13.3186L37.735 16.5596V16.2051C37.735 12.8291 36.4309 9.9594 33.8227 7.59615C31.2146 5.23291 28.0423 4.05128 24.3058 4.05128C23.3439 4.05128 22.4005 4.15256 21.4756 4.35513C20.5508 4.55769 19.6444 4.86154 18.7565 5.26667L15.4269 2.2282C16.8328 1.48547 18.2756 0.928419 19.7554 0.557051C21.2352 0.185684 22.752 0 24.3058 0C29.2631 0 33.4805 1.56987 36.9581 4.70962C40.4356 7.84936 42.1744 11.6812 42.1744 16.2051V16.5596L45.7259 13.3186L48.8335 16.1545L39.9547 24.257Z" fill="black"/>
</svg>
